<svg xmlns="http://www.w3.org/2000/svg" viewBox="0 0 96 96">
  <rect x="2" y="2" width="92" height="92" rx="14" fill="#0a120b" stroke="#72ff7d" stroke-width="4"/>
  <g fill="#f5f8eb">
    <rect x="35" y="24" width="26" height="18" rx="4"/>
    <rect x="42" y="20" width="12" height="8" rx="2"/>
    <rect x="27" y="40" width="42" height="10" rx="5"/>
    <path d="M27 45L18 35v18l9-4z"/>
    <path d="M69 45l9-10v18l-9-4z"/>
    <path d="M42 50h12v10H42z"/>
  </g>
  <path d="M48 58c-5 5-7 8-7 12 0 5 4 8 7 8 4 0 8-3 8-8 0-4-3-7-6-11-1 3-2 4-2-1z" fill="#ff8a5b"/>
  <path d="M48 64c-2 2-3 3-3 5 0 2 2 4 4 4s4-2 4-4c0-2-1-3-3-5-1 1-1 2-2 0z" fill="#f5c542"/>
</svg>
