<svg xmlns="http://www.w3.org/2000/svg" viewBox="0 0 256 256" role="img" aria-label="EXO-55 Breakthrough Exosuit">
  <rect width="256" height="256" fill="#061d21"/>
  <rect x="9" y="9" width="238" height="238" fill="#061d21" stroke="#55bfd8" stroke-width="18"/>
  <path d="M32 58h40v24H32zM78 58h10v8H78zm16 0h10v8H94zm16 0h10v8h-10zM78 74h10v8H78zm16 0h10v8H94zm16 0h10v8h-10zM172 28l56 12v62l-56 32-56-32V40z" fill="#fffcea"/>
  <path d="M86 136l24-26h38l24 26v44l-28 32v30h28v16h-60v-50h-20v50H34v-16h28v-30l-28-32v-44z" fill="#55bfd8"/>
  <path d="M112 136h32v32h-32z" fill="#061d21"/>
</svg>
