<svg xmlns="http://www.w3.org/2000/svg" viewBox="0 0 256 256" role="img" aria-label="EXO-51 Lumberer Exosuit">
  <rect width="256" height="256" fill="#061d21"/>
  <rect x="9" y="9" width="238" height="238" fill="#061d21" stroke="#55bfd8" stroke-width="18"/>
  <path d="M34 48h38l42 26-42 26H34zM190 40l26 30v44l-32 36-34-36V78l32-22z" fill="#fffcea"/>
  <path d="M198 78v42l-18-20-18 18 8-34 18-16z" fill="#061d21"/>
  <path d="M86 136l24-26h38l24 26v44l-28 32v30h28v16h-60v-50h-20v50H34v-16h28v-30l-28-32v-44z" fill="#55bfd8"/>
  <path d="M112 136h32v32h-32z" fill="#061d21"/>
</svg>
